<?xml version="1.0" encoding="UTF-8"?>
<svg id="Layer_2" data-name="Layer 2" xmlns="http://www.w3.org/2000/svg" viewBox="0 0 366.8 102.95">
  <defs>
    <style>
      .cls-1 {
        fill: #41bfef;
      }

      .cls-2 {
        fill: #e9562d;
      }

      .cls-3 {
        fill: #a9c94e;
      }

      .cls-4 {
        fill: #9fbf3d;
      }

      .cls-5 {
        fill: #3ba599;
      }

      .cls-6 {
        fill: #8bac3e;
      }

      .cls-7 {
        fill: #d4e5a1;
      }

      .cls-8 {
        fill: #0d4b6d;
      }

      .cls-9 {
        fill: #fdfeff;
      }

      .cls-10 {
        fill: #4780b9;
      }

      .cls-11 {
        fill: #30a041;
      }

      .cls-12 {
        fill: #282828;
      }

      .cls-13 {
        fill: #c2db77;
      }

      .cls-14 {
        fill: #477fb8;
      }

      .cls-15 {
        fill: #2c6398;
      }

      .cls-16 {
        fill: #b5d561;
      }

      .cls-17 {
        fill: #f7941d;
      }

      .cls-18 {
        fill: #074a6c;
      }
    </style>
  </defs>
  <g id="Layer_1-2" data-name="Layer 1">
    <g>
      <path class="cls-17" d="M108.44,21.75c.22-2.13-2.01-4.31-5.01-4.89-3-.57-5.63.76-5.84,2.98-.21,2.2,2.08,4.42,5.06,4.91,2.98.49,5.56-.86,5.78-3Z"/>
      <path class="cls-2" d="M115.82,29.75c.13-1.6-1.56-3.2-3.82-3.59-2.26-.38-4.21.65-4.33,2.31-.13,1.66,1.61,3.28,3.86,3.6,2.24.33,4.15-.72,4.29-2.33Z"/>
      <path class="cls-17" d="M95.12,13.9c.22-2.13-2.01-4.32-5.01-4.89-3-.57-5.63.76-5.84,2.98-.21,2.21,2.07,4.42,5.06,4.91,2.99.49,5.56-.86,5.79-3Z"/>
      <path class="cls-17" d="M69.6,32.75c2.51.19,4.59-1.18,4.67-3.07.08-1.89-1.89-3.61-4.43-3.87-2.54-.25-4.66,1.13-4.72,3.08-.05,1.95,1.95,3.67,4.47,3.87Z"/>
      <path class="cls-3" d="M61.47,70.91c-2.28.12-4.06,1.75-3.93,3.66.13,1.91,2.08,3.3,4.33,3.14,2.27-.16,3.99-1.8,3.89-3.66-.09-1.85-2.01-3.26-4.29-3.13Z"/>
      <path class="cls-4" d="M60.22,82.1c-2.57.13-4.57,1.98-4.43,4.14.14,2.14,2.34,3.71,4.89,3.53,2.54-.17,4.49-2.03,4.38-4.13-.1-2.09-2.26-3.68-4.84-3.54Z"/>
      <path class="cls-11" d="M71.9,51.94c.06-2.84-2.91-5.37-6.71-5.66-3.8-.27-6.94,1.9-6.96,4.88,0,2.99,3.07,5.53,6.82,5.68,3.75.15,6.79-2.04,6.85-4.9Z"/>
      <path class="cls-3" d="M63.25,59.93c-2.1-.07-3.8,1.22-3.77,2.89.02,1.66,1.75,3.05,3.83,3.09,2.08.04,3.74-1.26,3.74-2.88-.02-1.64-1.7-3.02-3.81-3.1Z"/>
      <path class="cls-2" d="M67.07,43.82c2.52.19,4.6-1.18,4.68-3.08.07-1.88-1.89-3.61-4.43-3.87-2.54-.25-4.66,1.13-4.72,3.07-.05,1.95,1.95,3.68,4.47,3.87Z"/>
      <path class="cls-17" d="M80.38,42.25c-3.56-.29-6.54,1.65-6.62,4.36-.08,2.71,2.76,5.07,6.27,5.25,3.52.19,6.43-1.77,6.54-4.38.12-2.59-2.64-4.94-6.2-5.23Z"/>
      <path class="cls-7" d="M76.82,55.23c-2.7-.13-4.9,1.45-4.92,3.52-.03,2.06,2.13,3.81,4.81,3.89,2.66.08,4.84-1.49,4.88-3.52.04-2.03-2.1-3.77-4.77-3.89Z"/>
      <path class="cls-6" d="M54.09,69.85c-.1-2.92-3.1-5.36-6.78-5.45-3.69-.1-6.6,2.29-6.45,5.33.16,3.04,3.26,5.49,6.89,5.46,3.62-.02,6.43-2.42,6.34-5.33Z"/>
      <path class="cls-2" d="M42.07,59.76c-.06-2-2.1-3.72-4.58-3.81-2.49-.11-4.46,1.46-4.39,3.5.08,2.05,2.15,3.75,4.62,3.82,2.46.06,4.39-1.51,4.34-3.51Z"/>
      <path class="cls-14" d="M35.17,50.16c2.29.13,4.11-1.24,4.11-3.08-.02-1.84-1.88-3.46-4.18-3.62-2.3-.18-4.15,1.2-4.13,3.07.03,1.87,1.91,3.49,4.2,3.63Z"/>
      <path class="cls-1" d="M45.51,35.91c.04-1.9-1.88-3.64-4.32-3.9-2.44-.26-4.46,1.11-4.48,3.06-.02,1.94,1.95,3.69,4.37,3.9,2.42.21,4.4-1.17,4.43-3.06Z"/>
      <path class="cls-14" d="M53.74,32.61c2.47.26,4.52-1.06,4.6-2.93.08-1.88-1.85-3.65-4.32-3.95-2.48-.31-4.55,1-4.63,2.93-.07,1.92,1.89,3.69,4.35,3.95Z"/>
      <path class="cls-17" d="M89.82,35.81c.17-2.44-2.42-4.74-5.85-5.15-3.42-.4-6.37,1.33-6.5,3.87-.14,2.55,2.53,4.86,5.93,5.17,3.39.29,6.25-1.44,6.43-3.88Z"/>
      <path class="cls-7" d="M88.11,69.34c2.51.04,4.56-1.47,4.6-3.35.04-1.89-1.96-3.49-4.49-3.54-2.53-.07-4.58,1.43-4.61,3.36-.04,1.92,1.98,3.49,4.49,3.54Z"/>
      <path class="cls-3" d="M76.45,69.09c-2.6-.03-4.72,1.62-4.68,3.68.03,2.05,2.17,3.73,4.77,3.7,2.58,0,4.66-1.67,4.64-3.69,0-2.01-2.11-3.67-4.73-3.69Z"/>
      <path class="cls-6" d="M45.53,77.49c-3.58.03-6.35,2.51-6.12,5.54.23,3.04,3.33,5.38,6.86,5.24,3.52-.14,6.19-2.63,6.02-5.55-.18-2.92-3.17-5.26-6.76-5.23Z"/>
      <path class="cls-11" d="M38.72,75.26c-.15-2.6-2.8-4.72-5.96-4.76-3.16-.02-5.6,2.12-5.39,4.8.19,2.69,2.92,4.82,6.03,4.75,3.11-.05,5.48-2.2,5.32-4.79Z"/>
      <path class="cls-17" d="M29.2,63.42c-.16-2.6-2.81-4.72-5.96-4.76-3.15-.02-5.6,2.12-5.39,4.8.2,2.69,2.92,4.82,6.03,4.75,3.11-.06,5.48-2.2,5.33-4.8Z"/>
      <path class="cls-17" d="M23.81,64.15s.05-.02.05-.03c0-.02-.03-.04-.05-.04-.02,0-.04.02-.04.04,0,.02.02.03.04.03Z"/>
      <path class="cls-17" d="M19.52,47.39c-2.38-.15-4.25,1.33-4.17,3.32.06,1.97,2.05,3.67,4.41,3.77,2.36.11,4.2-1.37,4.14-3.32-.06-1.93-2.01-3.63-4.38-3.77Z"/>
      <path class="cls-9" d="M21.34,37.81s.04-.01.04-.03c0-.03-.02-.04-.04-.04-.03,0-.05.01-.05.04,0,.01.02.03.05.03Z"/>
      <path class="cls-1" d="M47.45,20.32c.13-2.74-2.61-5.37-6.18-5.91-3.57-.54-6.61,1.32-6.71,4.16-.11,2.83,2.73,5.48,6.27,5.91,3.55.43,6.49-1.44,6.63-4.16Z"/>
      <path class="cls-14" d="M36.02,28.23c.13-2.74-2.62-5.37-6.19-5.91-3.57-.54-6.6,1.32-6.71,4.16-.11,2.83,2.73,5.48,6.27,5.91,3.55.42,6.49-1.44,6.63-4.16Z"/>
      <path class="cls-2" d="M71.81,22.98c3.43.45,6.35-1.2,6.56-3.68.22-2.48-2.39-4.94-5.85-5.5-3.45-.55-6.45,1.08-6.63,3.68-.19,2.59,2.49,5.06,5.92,5.51Z"/>
      <path class="cls-15" d="M56.99,20.57c3.47.01,6.15-1.99,6.05-4.48-.1-2.49-2.99-4.6-6.49-4.73-3.5-.12-6.26,1.88-6.12,4.49.14,2.59,3.1,4.7,6.56,4.73Z"/>
      <path class="cls-2" d="M93.77,24.77c.25-2.66-2.6-5.28-6.42-5.85-3.82-.59-7.14,1.2-7.35,3.99-.22,2.79,2.71,5.44,6.49,5.89,3.79.45,7.02-1.36,7.28-4.02Z"/>
      <path class="cls-18" d="M104.84,32.72c.23-2.37-2.33-4.63-5.77-5.08-3.44-.45-6.43,1.19-6.63,3.65-.21,2.48,2.44,4.76,5.85,5.11,3.4.34,6.31-1.31,6.55-3.68Z"/>
      <path class="cls-15" d="M105.81,46.06c3.3.24,6.1-1.41,6.31-3.69.21-2.28-2.27-4.39-5.59-4.73-3.32-.35-6.18,1.29-6.36,3.66-.17,2.37,2.38,4.51,5.65,4.76Z"/>
      <path class="cls-14" d="M108.44,57.02c3.54.15,6.52-1.75,6.73-4.22.2-2.48-2.51-4.7-6.08-4.96-3.59-.27-6.64,1.59-6.8,4.19-.16,2.59,2.62,4.83,6.15,4.99Z"/>
      <path class="cls-11" d="M112.75,63.1c.14-2.55-2.6-4.73-6.19-4.89-3.59-.16-6.62,1.85-6.71,4.5-.1,2.66,2.72,4.86,6.25,4.91,3.53.05,6.48-1.98,6.64-4.52Z"/>
      <path class="cls-7" d="M99.41,69.19c-2.38,0-4.36,1.44-4.4,3.25-.04,1.83,1.9,3.3,4.27,3.3,2.4-.02,4.35-1.47,4.4-3.27.04-1.78-1.86-3.26-4.27-3.27Z"/>
      <path class="cls-16" d="M88.6,76.72c-2.45.03-4.42,1.59-4.39,3.52.02,1.92,2.03,3.42,4.45,3.36,2.43-.07,4.38-1.64,4.37-3.52,0-1.88-1.97-3.39-4.43-3.36Z"/>
      <path class="cls-11" d="M81.68,84.83c-.07-2.81-2.99-5.03-6.6-4.98-3.59.05-6.44,2.46-6.31,5.39.12,2.92,3.15,5.16,6.69,4.99,3.52-.16,6.29-2.58,6.22-5.39Z"/>
      <path class="cls-6" d="M59.21,93.02c-3.27.17-5.76,2.54-5.5,5.33.25,2.77,3.09,4.83,6.3,4.58,3.21-.26,5.61-2.65,5.42-5.33-.2-2.69-2.96-4.74-6.22-4.58Z"/>
      <path class="cls-4" d="M49.85,95.4c-.2-2.31-2.56-4.09-5.31-3.97-2.75.12-4.82,2.14-4.58,4.51.23,2.38,2.66,4.16,5.36,3.97,2.72-.18,4.72-2.22,4.52-4.52Z"/>
      <path class="cls-2" d="M31.59,94.81c3.13-.18,5.43-2.49,5.19-5.17-.24-2.68-2.96-4.79-6.14-4.71-3.18.08-5.58,2.39-5.28,5.16.29,2.78,3.11,4.87,6.23,4.71Z"/>
      <path class="cls-2" d="M24.78,80.67c-.23-2.68-2.96-4.83-6.11-4.81-3.15.03-5.51,2.27-5.24,5.01.26,2.74,3.02,4.9,6.15,4.81,3.13-.09,5.44-2.33,5.2-5.01Z"/>
      <path class="cls-17" d="M14.12,69.02c-.14-1.92-2.07-3.52-4.36-3.56-2.27-.04-4.01,1.52-3.84,3.47.16,1.98,2.14,3.58,4.39,3.58,2.26,0,3.95-1.56,3.81-3.49Z"/>
      <path class="cls-2" d="M4.59,51.39c-2.66-.13-4.71,1.59-4.58,3.87.14,2.27,2.4,4.18,5.03,4.27,2.63.09,4.64-1.64,4.53-3.88-.12-2.23-2.34-4.13-4.98-4.26Z"/>
      <path class="cls-5" d="M8,24.36c-2.71-.33-4.94,1.25-4.92,3.53.02,2.28,2.25,4.33,4.94,4.57,2.69.24,4.84-1.34,4.84-3.54,0-2.18-2.15-4.23-4.86-4.56Z"/>
      <path class="cls-5" d="M21.96,33.69c-3.31-.4-6.03,1.52-6.01,4.31.02,2.79,2.75,5.29,6.04,5.58,3.29.3,5.91-1.63,5.91-4.32.01-2.67-2.62-5.16-5.94-5.57Z"/>
      <path class="cls-5" d="M22.63,18.33c.08-2.77-2.64-5.44-6.15-5.97-3.5-.52-6.43,1.39-6.48,4.28-.05,2.89,2.76,5.56,6.24,5.97,3.47.41,6.3-1.5,6.39-4.27Z"/>
      <path class="cls-8" d="M28.17,13.57c2.72.39,4.98-1.02,5.1-3.14.1-2.13-1.99-4.23-4.73-4.68-2.72-.46-5.04.95-5.14,3.14-.09,2.19,2.05,4.29,4.77,4.68Z"/>
      <path class="cls-5" d="M49.75,6.61c.22-2.85-2.63-5.74-6.43-6.45-3.79-.71-7.07,1.12-7.25,4.11-.19,2.97,2.76,5.87,6.52,6.45,3.77.59,6.94-1.26,7.16-4.11Z"/>
      <path class="cls-2" d="M80.4,8.57c.22-2.13-2-4.31-5-4.89-3-.57-5.64.76-5.85,2.98-.21,2.21,2.07,4.42,5.06,4.91,2.98.49,5.56-.86,5.78-3Z"/>
      <path class="cls-7" d="M100.13,83.42c-2.34.08-4.24,1.61-4.22,3.44.01,1.82,1.91,3.22,4.25,3.11,2.33-.08,4.21-1.62,4.21-3.43s-1.88-3.2-4.23-3.13Z"/>
      <path class="cls-13" d="M91.82,92.79c-.04-1.72-1.83-3.04-4.01-2.93-2.17.1-3.89,1.6-3.83,3.36.07,1.75,1.89,3.06,4.04,2.94,2.16-.14,3.85-1.63,3.8-3.36Z"/>
      <path class="cls-3" d="M73.97,93.55c-2.29.12-4.06,1.75-3.93,3.66.12,1.9,2.08,3.3,4.33,3.14,2.26-.16,3.99-1.8,3.89-3.66-.09-1.85-2-3.26-4.29-3.14Z"/>
    </g>
    <g>
      <g>
        <path class="cls-10" d="M242.25,28.77c-1.28,0-2.26.97-2.26,2.26v26.59c0,1.29.97,2.26,2.26,2.26s2.26-.97,2.26-2.26v-26.59c0-1.29-.97-2.26-2.26-2.26Z"/>
        <path class="cls-10" d="M233.34,32.74h1.26c1.06,0,1.9-.83,1.9-1.9s-.83-1.9-1.9-1.9h-1.58c-5.03,0-7.68,2.7-7.68,7.82v2.85h-2.54c-1.06,0-1.9.83-1.9,1.89s.83,1.9,1.9,1.9h2.54v14.2c0,1.29.97,2.26,2.26,2.26s2.26-.97,2.26-2.26v-14.2h4.34c1.06,0,1.9-.83,1.9-1.9s-.83-1.89-1.9-1.89h-4.34v-3.17c0-2.64,1.01-3.71,3.49-3.71Z"/>
        <path class="cls-10" d="M265.53,39.26c-1.27,0-2.26.99-2.26,2.25v9c0,3.25-2.09,5.43-5.2,5.43s-4.98-2.06-4.98-5.38v-9.04c0-1.28-.97-2.25-2.26-2.25-1.55,0-2.26,1.17-2.26,2.25v9.23c0,5.66,3.27,9.31,8.32,9.31,2.8,0,5.05-1.21,6.38-3.42v.94c0,1.42.87,2.3,2.26,2.3s2.26-.93,2.26-2.3v-16.05c0-1.28-.97-2.25-2.26-2.25Z"/>
        <path class="cls-10" d="M281.49,39.08c-5.85,0-10.26,4.5-10.26,10.49,0,5.22,3.23,10.49,10.44,10.49,3.24,0,6.37-1.28,8.15-3.35.39-.44.58-.87.58-1.31,0-1.1-.8-1.9-1.9-1.9-.68,0-1.23.45-1.49.71-1.43,1.34-2.79,2.18-5.15,2.18-3.4,0-5.67-1.99-5.96-5.21h13.38c1.1,0,1.76-.59,1.76-1.58,0-6.1-4.01-10.53-9.54-10.53ZM281.49,42.73c2.71,0,4.88,1.95,5.32,4.76h-10.82c.48-2.85,2.67-4.76,5.5-4.76Z"/>
        <path class="cls-10" d="M304.5,39.08c-2.8,0-5.04,1.21-6.38,3.42v-.94c0-1.42-.87-2.3-2.25-2.3s-2.26.92-2.26,2.3v16.05c0,1.29.97,2.26,2.26,2.26s2.25-.99,2.25-2.26v-9c0-3.25,2.09-5.43,5.2-5.43s4.98,2.07,4.98,5.39v9.04c0,1.29.97,2.26,2.26,2.26,1.55,0,2.25-1.17,2.25-2.26v-9.22c0-5.66-3.26-9.31-8.32-9.31Z"/>
        <path class="cls-10" d="M326.84,42.91c1.43,0,2.72.47,3.76,1.37.11.09.21.19.32.29.44.41.91.83,1.57.83,1.37,0,2.08-.93,2.08-1.85,0-.69-.26-1.13-.66-1.58-1.45-1.73-4.3-2.89-7.11-2.89-6.41,0-10.71,4.21-10.71,10.49s4.3,10.49,10.71,10.49c2.81,0,5.66-1.16,7.11-2.89.4-.45.67-.89.67-1.58,0-.92-.71-1.85-2.08-1.85-.66,0-1.13.42-1.57.83-.11.1-.21.19-.32.28-1.03.9-2.33,1.37-3.76,1.37-4.31,0-6.24-3.34-6.24-6.65s1.93-6.65,6.24-6.65Z"/>
        <path class="cls-10" d="M354.06,39.26c-1.07,0-1.72.5-2.11,1.62l-5.08,13.74-5.66-14.11c-.37-.84-1-1.25-1.93-1.25-1.01,0-2.03.63-2.03,2.03,0,.3.1.64.19.91l7.03,16.85c-1.36,2.55-2.55,3.86-5.08,5.55-.7.44-1.14.91-1.14,1.88,0,1.04.89,1.85,2.03,1.85.38,0,.86-.14,1.15-.33,3.78-2.14,5.98-4.91,8.42-10.55,2.6-6,4.68-11.5,5.97-15.06.09-.23.19-.69.19-1.05,0-1.43-.97-2.07-1.94-2.07Z"/>
      </g>
      <g>
        <path class="cls-8" d="M152.32,22.6c4.24,0,7.76,1.54,10.48,4.57.58.69,1.52,1.61,3,1.61,1.87,0,3.17-1.28,3.17-3.11,0-.86-.3-1.66-.92-2.43-3.5-4.42-9.53-7.05-16.11-7.05-12.51,0-21.59,9.26-21.59,22.02s9.08,22.02,21.59,22.02c6.58,0,12.6-2.63,16.1-7.05.62-.77.92-1.57.92-2.43,0-1.83-1.31-3.11-3.17-3.11-1.48,0-2.42.92-2.99,1.6-2.72,3.04-6.25,4.58-10.49,4.58-9.06,0-14.92-6.12-14.92-15.61s5.86-15.6,14.92-15.6Z"/>
        <path class="cls-8" d="M207,55.87c5.3-4.11,8.33-10.52,8.33-17.67,0-12.55-9.28-22.02-21.58-22.02s-21.58,9.47-21.58,22.02,9.28,22.02,21.58,22.02c2.61,0,5.24-.44,7.82-1.32l3.35,5.94c.58,1.01,1.52,1.56,2.67,1.56,1.73,0,3.24-1.43,3.24-3.05,0-.52-.14-1.05-.44-1.56l-3.4-5.92ZM195.06,46.57c0,.52.15,1.05.44,1.55l2.83,5.03c-1.4.43-2.97.66-4.58.66-10.04,0-14.61-8.09-14.61-15.61s4.57-15.6,14.61-15.6,14.6,8.09,14.6,15.6c0,4.73-1.68,9-4.62,11.82l-2.82-4.95c-.6-1.05-1.47-1.56-2.67-1.56-1.84,0-3.18,1.28-3.18,3.05Z"/>
      </g>
    </g>
    <g>
      <path class="cls-12" d="M130.67,80.28v-.11c0-.39.19-.59.69-.59h.56v-1.19c0-.55.27-.76.71-.76h.16c.42,0,.69.16.69.76v1.19h1.75c.5,0,.67.19.67.58v.11c0,.4-.19.61-.69.61h-1.75v3.9c0,.96.27,1.43,1.03,1.43.5,0,.85-.22,1.09-.55.05-.05.45.18.45.67,0,.59-.66,1.17-1.8,1.17-1.59,0-2.31-.88-2.31-2.55v-4.08h-.56c-.5,0-.69-.21-.69-.59Z"/>
      <path class="cls-12" d="M138.88,80.84c.34-.95.98-1.46,1.96-1.46.8,0,1.27.38,1.27,1.03,0,.61-.45.85-.48.82-.24-.19-.55-.34-.98-.34-1.25,0-1.75,1.22-1.75,3v2.72c0,.58-.31.75-.71.75h-.18c-.42,0-.71-.18-.71-.75v-6.94s.26-.18.58-.18c.47,0,.98.26,1,1.35Z"/>
      <path class="cls-12" d="M142.74,85.27c0-1.78,1.7-2.55,5.19-2.62h.21v-.16c0-1.17-.67-1.82-1.91-1.82-1.17,0-1.86.61-2.22,1.32,0,.02-.98,0-.98-.77s1.12-1.85,3.31-1.85,3.37,1.12,3.37,3.08v4.74c0,.08-.29.18-.58.18-.56,0-.96-.3-.98-1.24-.59.84-1.61,1.33-2.78,1.33-1.66,0-2.64-.88-2.64-2.2ZM148.14,84.25v-.59l-.43.02c-2.25.08-3.41.5-3.41,1.54,0,.69.55,1.12,1.46,1.12,1.38,0,2.38-.87,2.38-2.09Z"/>
      <path class="cls-12" d="M153.16,80.74c.53-.79,1.38-1.37,2.57-1.37,2.04,0,2.99,1.4,2.99,3.31v3.92c0,.58-.31.75-.71.75h-.18c-.42,0-.71-.18-.71-.75v-3.73c0-1.3-.66-2.1-1.78-2.1-1.01,0-1.78.55-2.17,1.35v4.48c0,.58-.31.75-.71.75h-.18c-.42,0-.71-.18-.71-.75v-6.94s.26-.18.58-.18c.47,0,.95.24,1,1.25Z"/>
      <path class="cls-12" d="M160.04,85.85c0-.5.58-.75.63-.72.51.66,1.38,1.16,2.6,1.16,1.09,0,1.7-.4,1.7-1.04,0-.79-.72-.93-1.99-1.21-1.14-.24-2.72-.59-2.72-2.23,0-1.45,1.21-2.43,3.08-2.43,1.98,0,2.97.83,2.97,1.56,0,.5-.61.79-.64.74-.48-.64-1.29-1.09-2.27-1.09-1.09,0-1.67.42-1.67,1.06,0,.71.67.87,1.93,1.14,1.19.26,2.84.61,2.84,2.28,0,1.48-1.22,2.43-3.21,2.43-2.15,0-3.26-.9-3.26-1.64Z"/>
      <path class="cls-12" d="M168.12,86.61v-10.17s.27-.18.58-.18c.5,0,1.01.26,1.01,1.37v8.98c0,.58-.29.75-.71.75h-.16c-.42,0-.72-.18-.72-.75Z"/>
      <path class="cls-12" d="M171.31,85.27c0-1.78,1.7-2.55,5.19-2.62h.21v-.16c0-1.17-.67-1.82-1.91-1.82-1.17,0-1.86.61-2.22,1.32,0,.02-.98,0-.98-.77s1.12-1.85,3.31-1.85,3.37,1.12,3.37,3.08v4.74c0,.08-.29.18-.58.18-.56,0-.96-.3-.98-1.24-.59.84-1.61,1.33-2.78,1.33-1.66,0-2.64-.88-2.64-2.2ZM176.7,84.25v-.59l-.43.02c-2.25.08-3.41.5-3.41,1.54,0,.69.55,1.12,1.46,1.12,1.38,0,2.38-.87,2.38-2.09Z"/>
      <path class="cls-12" d="M179.32,80.28v-.11c0-.39.19-.59.69-.59h.56v-1.19c0-.55.27-.76.71-.76h.16c.42,0,.69.16.69.76v1.19h1.75c.5,0,.67.19.67.58v.11c0,.4-.19.61-.69.61h-1.75v3.9c0,.96.27,1.43,1.03,1.43.5,0,.85-.22,1.09-.55.05-.05.45.18.45.67,0,.59-.66,1.17-1.8,1.17-1.59,0-2.31-.88-2.31-2.55v-4.08h-.56c-.5,0-.69-.21-.69-.59Z"/>
      <path class="cls-12" d="M185.88,77.03c0-.58.35-.9.96-.9s.93.32.93.9-.34.88-.95.88-.95-.32-.95-.88ZM186.02,86.61v-6.35c0-.58.31-.77.72-.77h.16c.42,0,.71.18.71.77v6.35c0,.58-.29.75-.71.75h-.16c-.42,0-.72-.18-.72-.75Z"/>
      <path class="cls-12" d="M191.23,80.74c.53-.79,1.38-1.37,2.57-1.37,2.04,0,2.99,1.4,2.99,3.31v3.92c0,.58-.31.75-.71.75h-.18c-.42,0-.71-.18-.71-.75v-3.73c0-1.3-.66-2.1-1.78-2.1-1.01,0-1.78.55-2.17,1.35v4.48c0,.58-.31.75-.71.75h-.18c-.42,0-.71-.18-.71-.75v-6.94s.26-.18.58-.18c.47,0,.95.24,1,1.25Z"/>
      <path class="cls-12" d="M197.66,88.55c0-1.12,1.06-1.88,2.46-2.12-.19-.16-.3-.4-.3-.72s.18-.61.43-.83c-1.24-.39-2.02-1.37-2.02-2.57,0-1.62,1.4-2.92,3.31-2.92.67,0,1.32.18,1.85.47l.42-.74c.26-.42.51-.61.92-.61.59,0,.87.64.82.67l-1.32,1.37c.42.48.67,1.08.67,1.72,0,1.62-1.38,2.81-3.34,2.81h-.29c-.06.1-.08.18-.08.27,0,.5.74.55,2.09.88,1.09.29,2.25.83,2.25,2.1,0,1.46-1.49,2.36-4.05,2.36s-3.81-.69-3.81-2.14ZM201.59,87.14c-1.32.08-2.41.55-2.41,1.37,0,.69.79,1.08,2.31,1.08s2.47-.43,2.47-1.21-1.24-.95-2.38-1.24ZM203.35,82.27c0-1.03-.74-1.75-1.83-1.75s-1.78.71-1.78,1.75.75,1.75,1.82,1.75,1.8-.71,1.8-1.75Z"/>
      <path class="cls-12" d="M209.18,77.03c0-.58.35-.9.96-.9s.93.32.93.9-.34.88-.95.88-.95-.32-.95-.88ZM209.32,86.61v-6.35c0-.58.31-.77.72-.77h.16c.42,0,.71.18.71.77v6.35c0,.58-.29.75-.71.75h-.16c-.42,0-.72-.18-.72-.75Z"/>
      <path class="cls-12" d="M212.49,83.44c0-2.44,1.53-4.06,3.66-4.06,1.25,0,2.2.58,2.65,1.27v-4.21s.27-.18.58-.18c.5,0,1.01.26,1.01,1.37v8.98c0,.58-.29.75-.71.75h-.16c-.42,0-.71-.18-.71-.75v-.59c-.61.93-1.49,1.49-2.72,1.49-2.07,0-3.61-1.62-3.61-4.07ZM218.82,83.92v-1.64c-.4-.98-1.19-1.59-2.38-1.59-1.45,0-2.41,1.09-2.41,2.75s1,2.75,2.38,2.75c1.29,0,2.41-.95,2.41-2.27Z"/>
      <path class="cls-12" d="M221.89,83.47c0-2.35,1.67-4.1,3.95-4.1s3.71,1.57,3.71,3.89v.13c0,.34-.11.47-.48.47h-5.7c.11,1.43,1.17,2.39,2.63,2.39,1.35,0,2.03-.59,2.43-1.29.03-.03.83.11.83.79s-1.19,1.75-3.29,1.75c-2.44,0-4.08-1.62-4.08-4.03ZM223.38,82.78h4.63c-.08-1.33-.9-2.2-2.18-2.2s-2.25.92-2.44,2.2Z"/>
      <path class="cls-12" d="M230.58,85.27c0-1.78,1.7-2.55,5.19-2.62h.21v-.16c0-1.17-.67-1.82-1.91-1.82-1.17,0-1.86.61-2.22,1.32,0,.02-.98,0-.98-.77s1.12-1.85,3.31-1.85,3.38,1.12,3.38,3.08v4.74c0,.08-.29.18-.58.18-.56,0-.96-.3-.98-1.24-.59.84-1.61,1.33-2.78,1.33-1.65,0-2.63-.88-2.63-2.2ZM235.98,84.25v-.59l-.43.02c-2.25.08-3.41.5-3.41,1.54,0,.69.55,1.12,1.46,1.12,1.38,0,2.38-.87,2.38-2.09Z"/>
      <path class="cls-12" d="M238.87,85.85c0-.5.58-.75.63-.72.51.66,1.38,1.16,2.6,1.16,1.09,0,1.7-.4,1.7-1.04,0-.79-.72-.93-1.99-1.21-1.14-.24-2.72-.59-2.72-2.23,0-1.45,1.21-2.43,3.08-2.43,1.98,0,2.97.83,2.97,1.56,0,.5-.61.79-.64.74-.48-.64-1.29-1.09-2.27-1.09-1.09,0-1.67.42-1.67,1.06,0,.71.67.87,1.93,1.14,1.19.26,2.84.61,2.84,2.28,0,1.48-1.22,2.43-3.21,2.43-2.15,0-3.26-.9-3.26-1.64Z"/>
      <path class="cls-12" d="M246.71,86.54v-.19c0-.56.29-.88.87-.88h.21c.59,0,.88.32.88.88v.19c0,.56-.31.87-.88.87h-.21c-.56,0-.87-.3-.87-.87Z"/>
      <path class="cls-12" d="M253.11,77.03c0-.58.35-.9.96-.9s.93.32.93.9-.34.88-.95.88-.95-.32-.95-.88ZM253.25,86.61v-6.35c0-.58.31-.77.72-.77h.16c.42,0,.71.18.71.77v6.35c0,.58-.29.75-.71.75h-.16c-.42,0-.72-.18-.72-.75Z"/>
      <path class="cls-12" d="M258.46,80.68c.53-.75,1.33-1.3,2.39-1.3,1.25,0,2.12.59,2.52,1.62.53-.9,1.4-1.62,2.68-1.62,1.96,0,2.91,1.19,2.91,3.18v4.05c0,.58-.29.75-.71.75h-.16c-.43,0-.72-.18-.72-.75v-3.86c0-1.3-.56-1.98-1.7-1.98-.82,0-1.56.51-1.96,1.29v4.55c0,.58-.29.75-.71.75h-.16c-.42,0-.72-.18-.72-.75v-3.79c0-1.37-.56-2.04-1.7-2.04-.8,0-1.56.51-1.94,1.29v4.55c0,.58-.3.75-.71.75h-.18c-.42,0-.71-.18-.71-.75v-6.94s.26-.18.58-.18c.45,0,.93.22,1,1.19Z"/>
      <path class="cls-12" d="M270.85,89.69v-10.03s.26-.18.58-.18c.47,0,.98.26,1,1.35.59-.92,1.48-1.46,2.72-1.46,2.07,0,3.62,1.59,3.62,4.05s-1.53,4.08-3.66,4.08c-1.29,0-2.22-.67-2.65-1.45v3.63c0,.58-.3.75-.71.75h-.18c-.42,0-.71-.18-.71-.75ZM277.21,83.44c0-1.61-1-2.75-2.38-2.75-1.19,0-2.01.63-2.41,1.61v1.62c0,1.3,1.09,2.27,2.38,2.27,1.45,0,2.41-1.11,2.41-2.75Z"/>
      <path class="cls-12" d="M281.82,80.84c.34-.95.98-1.46,1.96-1.46.8,0,1.27.38,1.27,1.03,0,.61-.45.85-.48.82-.24-.19-.55-.34-.98-.34-1.25,0-1.75,1.22-1.75,3v2.72c0,.58-.31.75-.71.75h-.18c-.42,0-.71-.18-.71-.75v-6.94s.26-.18.58-.18c.47,0,.98.26,1,1.35Z"/>
      <path class="cls-12" d="M285.66,83.43c0-2.36,1.67-4.05,4.06-4.05s4.03,1.7,4.03,4.08-1.67,4.05-4.05,4.05-4.05-1.69-4.05-4.08ZM292.28,83.46c0-1.61-1.08-2.78-2.57-2.78s-2.59,1.16-2.59,2.75,1.11,2.78,2.59,2.78,2.57-1.17,2.57-2.75Z"/>
      <path class="cls-12" d="M300.07,80.44c.27-.76.58-.95.98-.95.5,0,.85.39.82.47l-2.81,6.94c-.14.35-.47.5-.98.5-.55,0-.82-.11-.96-.47l-2.84-6.97c-.03-.1.32-.47.83-.47.45,0,.74.19,1.01.95l1.94,5.45,2.01-5.45Z"/>
      <path class="cls-12" d="M302.98,77.03c0-.58.35-.9.96-.9s.93.32.93.9-.34.88-.95.88-.95-.32-.95-.88ZM303.12,86.61v-6.35c0-.58.31-.77.72-.77h.16c.42,0,.71.18.71.77v6.35c0,.58-.29.75-.71.75h-.16c-.42,0-.72-.18-.72-.75Z"/>
      <path class="cls-12" d="M308.33,80.74c.53-.79,1.38-1.37,2.57-1.37,2.04,0,2.99,1.4,2.99,3.31v3.92c0,.58-.31.75-.71.75h-.18c-.42,0-.71-.18-.71-.75v-3.73c0-1.3-.66-2.1-1.78-2.1-1.01,0-1.78.55-2.17,1.35v4.48c0,.58-.3.75-.71.75h-.18c-.42,0-.71-.18-.71-.75v-6.94s.26-.18.58-.18c.47,0,.95.24,1,1.25Z"/>
      <path class="cls-12" d="M314.76,88.55c0-1.12,1.06-1.88,2.46-2.12-.19-.16-.3-.4-.3-.72s.18-.61.43-.83c-1.24-.39-2.02-1.37-2.02-2.57,0-1.62,1.4-2.92,3.31-2.92.67,0,1.32.18,1.85.47l.42-.74c.26-.42.51-.61.92-.61.59,0,.87.64.82.67l-1.32,1.37c.42.48.67,1.08.67,1.72,0,1.62-1.38,2.81-3.34,2.81h-.29c-.06.1-.08.18-.08.27,0,.5.74.55,2.09.88,1.09.29,2.25.83,2.25,2.1,0,1.46-1.49,2.36-4.05,2.36s-3.81-.69-3.81-2.14ZM318.7,87.14c-1.32.08-2.41.55-2.41,1.37,0,.69.79,1.08,2.31,1.08s2.47-.43,2.47-1.21-1.24-.95-2.38-1.24ZM320.45,82.27c0-1.03-.74-1.75-1.83-1.75s-1.78.71-1.78,1.75.75,1.75,1.82,1.75,1.8-.71,1.8-1.75Z"/>
      <path class="cls-12" d="M326.42,86.61v-10.17s.27-.18.58-.18c.5,0,1.01.26,1.01,1.37v8.98c0,.58-.29.75-.71.75h-.16c-.42,0-.72-.18-.72-.75Z"/>
      <path class="cls-12" d="M329.97,77.03c0-.58.35-.9.96-.9s.93.32.93.9-.34.88-.95.88-.95-.32-.95-.88ZM330.12,86.61v-6.35c0-.58.31-.77.72-.77h.16c.42,0,.71.18.71.77v6.35c0,.58-.29.75-.71.75h-.16c-.42,0-.72-.18-.72-.75Z"/>
      <path class="cls-12" d="M338.78,80.44c.27-.76.58-.95.98-.95.5,0,.85.39.82.47l-2.81,6.94c-.14.35-.47.5-.98.5-.55,0-.82-.11-.96-.47l-2.84-6.97c-.03-.1.32-.47.83-.47.45,0,.74.19,1.01.95l1.94,5.45,2.01-5.45Z"/>
      <path class="cls-12" d="M341.09,83.47c0-2.35,1.67-4.1,3.95-4.1s3.71,1.57,3.71,3.89v.13c0,.34-.11.47-.48.47h-5.7c.11,1.43,1.17,2.39,2.63,2.39,1.35,0,2.03-.59,2.43-1.29.03-.03.83.11.83.79s-1.19,1.75-3.29,1.75c-2.44,0-4.08-1.62-4.08-4.03ZM342.59,82.78h4.63c-.08-1.33-.9-2.2-2.18-2.2s-2.25.92-2.44,2.2Z"/>
      <path class="cls-12" d="M349.67,85.85c0-.5.58-.75.63-.72.51.66,1.38,1.16,2.6,1.16,1.09,0,1.7-.4,1.7-1.04,0-.79-.72-.93-1.99-1.21-1.14-.24-2.72-.59-2.72-2.23,0-1.45,1.21-2.43,3.08-2.43,1.98,0,2.97.83,2.97,1.56,0,.5-.61.79-.64.74-.48-.64-1.29-1.09-2.27-1.09-1.09,0-1.67.42-1.67,1.06,0,.71.67.87,1.93,1.14,1.19.26,2.84.61,2.84,2.28,0,1.48-1.22,2.43-3.21,2.43-2.15,0-3.26-.9-3.26-1.64Z"/>
      <path class="cls-12" d="M357.52,86.54v-.19c0-.56.29-.88.87-.88h.21c.59,0,.88.32.88.88v.19c0,.56-.31.87-.88.87h-.21c-.56,0-.87-.3-.87-.87Z"/>
    </g>
    <path class="cls-10" d="M360.18,40.31c0-1.94,1.41-3.38,3.32-3.38s3.3,1.4,3.3,3.35-1.4,3.38-3.31,3.38-3.31-1.4-3.31-3.35ZM366.21,40.3c0-1.63-1.15-2.83-2.73-2.83s-2.71,1.15-2.71,2.82,1.15,2.83,2.73,2.83,2.71-1.15,2.71-2.82ZM364.07,41.77l-.76-1h-.4v.92c0,.22-.11.35-.32.35h-.11c-.21,0-.32-.16-.32-.42v-2.66c0-.27.15-.42.4-.42h1.06c.9,0,1.39.36,1.39,1.1,0,.56-.34.95-.93,1.04l.89,1.08s-.17.29-.42.29c-.14,0-.34-.07-.48-.28ZM362.9,40.19h.71c.42,0,.65-.2.65-.52,0-.36-.24-.52-.68-.52h-.68v1.04Z"/>
  </g>
</svg>